{"title":"Pornstars Punishment xXx Angelina Valentine The Fan Bang@Mastito","uid":6085409,"size":497601027,"categoryP":"porn","categoryS":"movie_clips","magnet":"?xt=urn:btih:f2a6223ed890fa377db38e6daa684802cefa1501&amp;dn=Pornstars+Punishment+xXx+Angelina+Valentine+The+Fan+Bang%40Mastito&amp;tr=udp%3A%2F%2Ftracker.openbittorrent.com%3A80&amp;tr=udp%3A%2F%2Fopen.demonii.com%3A1337&amp;tr=udp%3A%2F%2Ftracker.coppersurfer.tk%3A6969&amp;tr=udp%3A%2F%2Fexodus.desync.com%3A6969","seeders":0,"leechers":0,"uploader":"amanrulz","files":1,"time":1294305520,"description":"mastitorrents.com\n &lt;a href=&quot;\nhttp://mastitorrents.com/forums/index.php&quot; rel=&quot;nofollow&quot; target=&quot;_NEW&quot;&gt;\nhttp://mastitorrents.com/forums/index.php&lt;/a&gt;\n\nGeneral \nComplete name : Pornstars Punishment - Angelina Valentine - The Fan Bang .wmv \nFormat : Windows Media \nFile size : 475 MiB \nDuration : 27mn 43s \nOverall bit rate : 2 394 Kbps \nMaximum Overall bit rate : 2 364 Kbps \nEncoded date : UTC 1970-01-01 00:00:00.000 \n\nVideo \nID : 1 \nFormat : WMV2 \nCodec ID : WMV2 \nCodec ID/Info : Windows Media Video 8 \nDescription of the codec : wmv2 \nDuration : 27mn 43s \nBit rate : 2 226 Kbps \nWidth : 768 pixels \nHeight : 432 pixels \nDisplay aspect ratio : 16:9 \nFrame rate : 29.970 fps \nBit depth : 8 bits \nBits/(Pixel*Frame) : 0.224 \nStream size : 441 MiB (93%) \n\nAudio \nID : 2 \nFormat : WMA \nFormat version : Version 2 \nCodec ID : 161 \nCodec ID/Info : Windows Media Audio \nDescription of the codec : Windows Media Audio V8 \nDuration : 27mn 43s \nBit rate : 64.0 Kbps \nChannel(s) : 2 channels \nSampling rate : 48.0 KHz \nBit depth : 16 bits \nStream size : 12.7 MiB (3%)","torrent":{"xt":"urn:btih:f2a6223ed890fa377db38e6daa684802cefa1501","amp;dn":"Pornstars+Punishment+xXx+Angelina+Valentine+The+Fan+Bang%40Mastito","amp;tr":["udp%3A%2F%2Ftracker.openbittorrent.com%3A80","udp%3A%2F%2Fopen.demonii.com%3A1337","udp%3A%2F%2Ftracker.coppersurfer.tk%3A6969","udp%3A%2F%2Fexodus.desync.com%3A6969"],"infoHash":"f2a6223ed890fa377db38e6daa684802cefa1501","infoHashBuffer":{"type":"Buffer","data":[242,166,34,62,216,144,250,55,125,179,142,109,170,104,72,2,206,250,21,1]},"announce":[],"urlList":[]}}